<svg width="76" height="76" viewBox="0 0 76 76" fill="none" xmlns="http://www.w3.org/2000/svg" xmlns:xlink="http://www.w3.org/1999/xlink">
<g opacity="0.5">
<path d="M37.761,15.104C31.944,15.104 28.271,21.617 20.924,34.643L20.008,36.266C13.903,47.091 10.851,52.503 13.61,56.46C16.369,60.418 23.194,60.418 36.846,60.418L38.677,60.418C52.328,60.418 59.154,60.418 61.912,56.46C64.671,52.503 61.619,47.091 55.514,36.266L54.598,34.643C47.252,21.617 43.578,15.104 37.761,15.104Z" fill="#FF3900"/>
</g>
<path d="M37.761,25.803C38.804,25.803 39.649,26.649 39.649,27.692L39.649,40.279C39.649,41.321 38.804,42.167 37.761,42.167C36.718,42.167 35.873,41.321 35.873,40.279L35.873,27.692C35.873,26.649 36.718,25.803 37.761,25.803Z" fill="#FF3900"/>
<path d="M37.761,50.348C39.151,50.348 40.279,49.221 40.279,47.831C40.279,46.44 39.151,45.313 37.761,45.313C36.371,45.313 35.244,46.44 35.244,47.831C35.244,49.221 36.371,50.348 37.761,50.348Z" fill="#FF3900"/>
</svg>
