<svg width="76" height="76" viewBox="0 0 76 76" fill="none" xmlns="http://www.w3.org/2000/svg" xmlns:xlink="http://www.w3.org/1999/xlink">
<g opacity="0.5">
<path d="M35.636,62.935L37.672,62.935C44.677,62.935 48.18,62.935 50.457,60.653C52.734,58.372 52.967,54.629 53.433,47.143L54.105,36.357C54.358,32.296 54.484,30.265 53.342,28.978C52.199,27.691 50.27,27.691 46.411,27.691L26.896,27.691C23.038,27.691 21.108,27.691 19.966,28.978C18.824,30.265 18.95,32.296 19.203,36.357L19.874,47.143C20.34,54.629 20.573,58.372 22.851,60.653C25.128,62.935 28.631,62.935 35.636,62.935Z" fill="#082567"/>
</g>
<path d="M13.997,23.076C13.997,21.918 14.867,20.979 15.939,20.979L22.646,20.977C23.979,20.941 25.155,20.026 25.608,18.671C25.62,18.636 25.634,18.592 25.683,18.433L25.972,17.496C26.149,16.922 26.303,16.421 26.518,15.974C27.37,14.207 28.946,12.98 30.767,12.666C31.228,12.586 31.716,12.587 32.276,12.587L41.032,12.587C41.592,12.587 42.081,12.586 42.542,12.666C44.363,12.98 45.938,14.207 46.79,15.974C47.006,16.421 47.16,16.922 47.337,17.496L47.626,18.433C47.675,18.592 47.689,18.636 47.701,18.671C48.154,20.026 49.563,20.942 50.895,20.979L57.369,20.979C58.441,20.979 59.311,21.918 59.311,23.076C59.311,24.235 58.441,25.174 57.369,25.174L15.939,25.174C14.867,25.174 13.997,24.235 13.997,23.076Z" fill="#082567"/>
</svg>
