<svg width="342" height="332" viewBox="0 0 342 332" fill="none" xmlns="http://www.w3.org/2000/svg" xmlns:xlink="http://www.w3.org/1999/xlink">
<g opacity="0.1">
<path d="M11.757,143.845C11.757,143.845 6.614,201.741 48.399,248.165C90.183,294.589 154.171,308.459 205.821,321.119C257.472,333.779 301.116,310.171 312.668,265.069C324.222,219.967 286.106,199.526 270.848,143.27C255.59,87.013 259.602,70.05 217.816,29.841C176.032,-10.367 102.2,-2.904 58.072,45.985C13.944,94.875 11.757,143.845 11.757,143.845Z" fill="#6A7EFC"/>
</g>
<g opacity="0.1">
<path d="M6.247,144.585C6.247,144.585 0.918,200.456 44.217,245.256C87.515,290.058 153.821,303.444 207.343,315.66C260.865,327.878 306.089,305.096 318.061,261.57C330.035,218.044 290.537,198.319 274.727,144.029C258.915,89.739 263.071,73.369 219.773,34.566C176.474,-4.237 99.967,2.965 54.24,50.146C8.513,97.326 6.247,144.585 6.247,144.585Z" transform="rotate(175.148 163.163 164.244)" fill="#6A7EFC"/>
</g>
<g opacity="0.5">
<path d="M7.031,257.629C9.168,257.467 13.314,255.068 13.321,255.068C13.328,255.068 10.963,252.706 10.792,252.573C8.848,251.096 4.246,249.362 2.038,250.993C1.678,251.274 1.379,251.63 1.161,252.039C0.943,252.447 0.81,252.899 0.772,253.364C0.734,253.83 0.79,254.298 0.939,254.739C1.087,255.18 1.323,255.584 1.632,255.924C2.893,257.422 5.229,257.762 7.031,257.629Z" fill="#333333"/>
<path d="M14.917,269.477C16.84,268.776 20.024,265.594 20.273,265.336C22.026,267.23 23.899,269.001 25.879,270.636C27.026,271.588 28.208,272.518 29.441,273.434C28.828,273.102 28.287,272.806 28.208,272.777C25.95,271.861 21.085,271.47 19.354,273.648C19.072,274.016 18.868,274.443 18.757,274.899C18.645,275.356 18.629,275.831 18.708,276.295C18.788,276.758 18.961,277.199 19.218,277.588C19.474,277.976 19.807,278.304 20.195,278.549C21.79,279.649 24.134,279.339 25.836,278.712C27.539,278.084 30.338,275.427 31.065,274.711C31.528,275.058 31.984,275.412 32.447,275.752C34.676,277.405 36.913,279.044 39.057,280.72C39.812,281.31 40.531,281.923 41.258,282.528C40.717,282.233 40.261,281.989 40.19,281.96C37.932,281.044 33.066,280.653 31.335,282.831C31.06,283.201 30.863,283.627 30.757,284.081C30.652,284.536 30.639,285.008 30.721,285.468C30.803,285.927 30.978,286.364 31.233,286.749C31.489,287.134 31.82,287.459 32.204,287.703C33.8,288.795 36.144,288.485 37.846,287.865C39.548,287.245 42.077,284.831 42.939,283.99C43.651,284.632 44.364,285.274 45.076,285.938C45.525,286.396 45.988,286.809 46.415,287.297L47.705,288.714C48.488,289.637 49.307,290.589 50.048,291.519C50.575,292.161 51.06,292.774 51.551,293.401C50.839,292.803 49.321,291.667 49.193,291.585C47.056,290.331 42.334,289.172 40.318,291.061C39.991,291.383 39.734,291.773 39.563,292.204C39.391,292.636 39.31,293.101 39.323,293.567C39.337,294.034 39.445,294.492 39.641,294.913C39.837,295.333 40.116,295.706 40.46,296.007C41.885,297.336 44.243,297.402 46.016,297.055C47.975,296.664 51.458,294.14 51.893,293.822C52.698,294.856 53.481,295.874 54.201,296.841C56.146,299.44 57.762,301.75 59.009,303.618L60.605,302.747C59.28,300.857 57.556,298.48 55.462,295.808C54.643,294.752 53.745,293.645 52.819,292.516C53.706,291.439 54.529,290.307 55.284,289.127C57.214,289.865 61.182,289.725 61.694,289.71C61.823,291.039 61.93,292.324 62.015,293.549C62.243,296.731 62.357,299.521 62.421,301.758L64.152,300.805C64.045,298.709 63.881,296.214 63.618,293.424C63.497,292.073 63.34,290.641 63.162,289.164C63.66,289.017 67.756,287.776 69.266,286.433C70.648,285.215 72.073,283.266 71.959,281.266C71.947,280.799 71.84,280.339 71.646,279.918C71.451,279.496 71.173,279.122 70.83,278.819C70.487,278.516 70.086,278.292 69.653,278.16C69.22,278.028 68.766,277.992 68.319,278.055C65.648,278.505 63.532,283.074 63.169,285.555C63.169,285.702 63.084,287.319 63.062,288.337C62.991,287.74 62.92,287.156 62.841,286.536C62.677,285.311 62.485,284.093 62.286,282.786C62.167,282.161 62.046,281.527 61.922,280.882C61.816,280.24 61.623,279.583 61.474,278.926C61.103,277.405 60.647,275.892 60.163,274.371C61.196,274.231 64.857,273.633 66.403,272.666C67.949,271.699 69.637,269.972 69.815,268.001C69.871,267.537 69.832,267.066 69.702,266.619C69.571,266.172 69.351,265.758 69.056,265.405C68.761,265.051 68.398,264.766 67.99,264.567C67.582,264.368 67.139,264.261 66.688,264.251C63.981,264.251 61.224,268.466 60.498,270.894C60.455,271.049 60.12,272.828 59.956,273.81C59.657,272.895 59.365,271.987 59.03,271.079C58.076,268.451 57.022,265.823 55.989,263.195L55.056,260.781C55.426,260.73 59.793,260.147 61.524,259.039C63.062,258.05 64.757,256.345 64.928,254.374C64.995,253.906 64.965,253.429 64.84,252.975C64.715,252.52 64.499,252.098 64.204,251.737C63.91,251.376 63.544,251.084 63.132,250.881C62.721,250.677 62.272,250.567 61.816,250.558C59.102,250.558 56.345,254.773 55.626,257.164C55.569,257.349 55.098,259.91 55.006,260.567C54.293,258.796 53.66,257.017 53.075,255.245C52.276,252.85 51.627,250.404 51.131,247.922C51.302,247.922 55.868,247.31 57.641,246.173C59.173,245.184 60.868,243.478 61.046,241.508C61.103,241.044 61.066,240.574 60.936,240.127C60.806,239.68 60.587,239.266 60.293,238.912C59.998,238.558 59.636,238.273 59.228,238.074C58.82,237.875 58.377,237.767 57.926,237.758C55.212,237.758 52.456,241.973 51.736,244.364C51.679,244.556 51.166,247.317 51.109,247.819C51.109,247.671 51.038,247.531 51.01,247.383C50.579,244.879 50.362,242.339 50.361,239.795C50.361,238.392 50.404,237.049 50.49,235.742C51.352,235.742 55.284,235.595 56.993,234.753C58.703,233.912 60.484,232.443 60.875,230.501C60.98,230.047 60.991,229.576 60.909,229.117C60.827,228.658 60.652,228.222 60.397,227.837C60.142,227.452 59.812,227.127 59.428,226.883C59.044,226.639 58.615,226.481 58.168,226.419C55.469,226.139 52.285,229.985 51.309,232.288C51.259,232.413 50.853,233.764 50.597,234.716C50.646,234.133 50.682,233.52 50.739,232.959C50.946,230.841 51.266,228.922 51.558,227.216C51.729,226.249 51.907,225.386 52.078,224.574C52.919,224.094 56.259,222.138 57.378,220.602C58.496,219.067 59.458,216.912 58.931,214.978C58.822,214.522 58.623,214.095 58.344,213.725C58.065,213.355 57.715,213.05 57.314,212.831C56.914,212.611 56.474,212.482 56.022,212.451C55.57,212.42 55.117,212.489 54.692,212.652C52.171,213.686 51.06,218.624 51.216,221.127C51.216,221.348 51.822,224.707 51.864,224.677L51.914,224.677C51.736,225.452 51.551,226.286 51.366,227.209C51.038,228.907 50.654,230.826 50.426,232.945C50.128,235.223 49.959,237.518 49.92,239.817C49.865,242.394 50.032,244.97 50.418,247.516C50.418,247.516 50.418,247.575 50.418,247.605C50.062,246.867 48.994,244.844 48.894,244.704C47.469,242.652 43.644,239.537 41.059,240.371C40.633,240.523 40.243,240.765 39.913,241.084C39.584,241.402 39.323,241.788 39.147,242.217C38.971,242.647 38.884,243.11 38.892,243.576C38.9,244.043 39.002,244.502 39.192,244.925C39.94,246.749 42.042,247.834 43.815,248.291C45.796,248.801 50.141,247.967 50.49,247.9C50.941,250.48 51.56,253.025 52.342,255.518C52.79,256.994 53.282,258.427 53.766,259.873C53.439,259.246 53.14,258.692 53.09,258.618C51.665,256.566 47.84,253.451 45.254,254.285C44.828,254.437 44.438,254.68 44.109,254.998C43.78,255.316 43.519,255.703 43.343,256.132C43.167,256.562 43.08,257.025 43.088,257.491C43.095,257.957 43.198,258.417 43.388,258.84C44.136,260.671 46.237,261.748 48.004,262.206C49.77,262.664 53.51,262.036 54.493,261.852C54.7,262.405 54.892,262.959 55.098,263.513C56.074,266.17 57.064,268.813 57.948,271.433C58.261,272.356 58.539,273.279 58.824,274.201C58.532,273.648 58.275,273.183 58.233,273.116C56.808,271.064 52.976,267.949 50.397,268.783C49.971,268.934 49.58,269.177 49.25,269.494C48.92,269.812 48.658,270.198 48.481,270.628C48.304,271.057 48.217,271.521 48.224,271.988C48.232,272.454 48.334,272.914 48.524,273.338C49.279,275.161 51.373,276.246 53.147,276.704C54.92,277.161 58.29,276.586 59.458,276.379C59.721,277.331 59.985,278.284 60.17,279.221C60.298,279.863 60.469,280.476 60.569,281.125C60.669,281.775 60.783,282.41 60.89,283.037C61.046,284.263 61.224,285.525 61.353,286.728C61.445,287.562 61.524,288.36 61.602,289.157C61.296,288.234 60.669,286.44 60.598,286.293C59.585,284.358 58.114,282.723 56.324,281.539C56.218,281.319 56.094,281.109 55.953,280.911C55.695,280.529 55.361,280.207 54.975,279.967C54.588,279.726 54.157,279.573 53.71,279.517C53.262,279.46 52.808,279.502 52.378,279.639C51.947,279.777 51.549,280.006 51.209,280.314C49.215,282.218 49.891,287.238 50.903,289.519C50.967,289.651 51.772,291.032 52.327,291.895C51.943,291.438 51.615,290.988 51.181,290.522C50.397,289.592 49.585,288.684 48.723,287.71L47.405,286.322C46.978,285.857 46.465,285.414 45.981,284.949C44.862,283.901 43.68,282.89 42.469,281.908C43.253,281.17 46.031,278.623 46.743,276.911C47.455,275.198 48.004,272.821 47.099,271.072C46.904,270.649 46.625,270.275 46.281,269.972C45.936,269.669 45.534,269.445 45.1,269.315C44.666,269.185 44.211,269.151 43.764,269.216C43.316,269.28 42.887,269.442 42.505,269.691C40.254,271.263 40.182,276.335 40.852,278.749C40.895,278.896 41.564,280.572 41.949,281.48C41.237,280.897 40.524,280.306 39.727,279.738C37.533,278.092 35.253,276.497 32.995,274.903L30.929,273.426C31.214,273.175 34.541,270.193 35.396,268.259C36.151,266.554 36.656,264.17 35.752,262.42C35.552,262.006 35.271,261.64 34.926,261.346C34.582,261.051 34.182,260.835 33.752,260.71C33.321,260.586 32.871,260.556 32.429,260.623C31.987,260.69 31.564,260.852 31.186,261.099C28.935,262.664 28.864,267.742 29.54,270.149C29.59,270.326 30.559,272.74 30.83,273.338C29.32,272.245 27.824,271.123 26.385,270.001C24.441,268.463 22.594,266.796 20.857,265.011C20.985,264.893 24.483,261.793 25.352,259.844C26.107,258.146 26.62,255.754 25.715,254.005C25.516,253.586 25.233,253.216 24.886,252.917C24.539,252.619 24.136,252.4 23.702,252.274C23.268,252.148 22.813,252.118 22.367,252.186C21.921,252.254 21.494,252.419 21.114,252.669C18.863,254.241 18.792,259.312 19.468,261.719C19.518,261.911 20.565,264.502 20.786,264.952L20.473,264.649C18.777,262.81 17.244,260.816 15.892,258.692C15.13,257.526 14.468,256.374 13.841,255.238C14.553,254.728 17.759,252.366 18.735,250.69C19.71,249.015 20.423,246.771 19.71,244.933C19.557,244.493 19.316,244.092 19.004,243.755C18.691,243.419 18.313,243.154 17.895,242.979C17.477,242.803 17.029,242.721 16.578,242.737C16.127,242.753 15.685,242.867 15.28,243.072C12.879,244.379 12.274,249.413 12.687,251.886C12.687,252.019 13.079,253.363 13.399,254.33C13.129,253.813 12.837,253.281 12.587,252.78C11.633,250.897 10.871,249.089 10.208,247.531C9.845,246.623 9.496,245.796 9.239,245.021C9.681,244.15 11.426,240.592 11.54,238.688C11.654,236.783 11.241,234.384 9.816,233.092C9.485,232.776 9.093,232.535 8.666,232.386C8.239,232.236 7.786,232.182 7.337,232.226C6.888,232.269 6.453,232.411 6.061,232.64C5.668,232.87 5.326,233.182 5.058,233.557C3.505,235.86 5.208,240.614 6.675,242.615C6.803,242.792 9.083,245.25 9.104,245.206L9.104,245.154C9.368,245.892 9.66,246.712 9.987,247.583C10.621,249.185 11.348,250.993 12.26,252.905C13.23,254.977 14.317,256.989 15.515,258.929C16.84,261.107 18.349,263.16 20.024,265.063L20.088,265.129C19.376,264.716 17.431,263.653 17.239,263.579C14.981,262.664 10.115,262.272 8.392,264.45C8.116,264.819 7.919,265.244 7.813,265.698C7.706,266.151 7.694,266.623 7.775,267.082C7.856,267.541 8.03,267.977 8.285,268.361C8.539,268.746 8.87,269.071 9.254,269.315C10.871,270.429 13.207,270.105 14.917,269.477Z" fill="#333333"/>
<path d="M50.134,235.336C50.184,235.336 49.422,232.015 49.35,231.808C48.531,229.446 45.604,225.386 42.89,225.482C42.441,225.512 42.003,225.64 41.604,225.857C41.206,226.074 40.855,226.375 40.576,226.741C40.297,227.107 40.095,227.53 39.983,227.981C39.871,228.433 39.852,228.904 39.926,229.364C40.19,231.335 41.949,232.959 43.531,233.875C45.383,234.952 50.127,235.336 50.134,235.336Z" fill="#333333"/>
<path d="M334.797,257.629C332.66,257.467 328.515,255.068 328.515,255.068C328.515,255.068 330.872,252.706 331.036,252.573C332.981,251.096 337.59,249.362 339.798,250.993C340.157,251.274 340.456,251.631 340.673,252.04C340.891,252.449 341.022,252.901 341.06,253.366C341.098,253.831 341.04,254.3 340.892,254.74C340.743,255.181 340.506,255.584 340.197,255.924C338.907,257.422 336.599,257.762 334.797,257.629Z" fill="#333333"/>
<path d="M326.92,269.477C324.996,268.776 321.812,265.594 321.556,265.336C319.805,267.232 317.932,269.003 315.95,270.636C314.803,271.588 313.621,272.519 312.424,273.434C313.029,273.102 313.578,272.806 313.656,272.777C315.914,271.862 320.779,271.47 322.503,273.648C322.778,274.018 322.975,274.443 323.081,274.897C323.187,275.351 323.199,275.822 323.117,276.281C323.035,276.74 322.86,277.176 322.605,277.561C322.35,277.945 322.019,278.27 321.634,278.513C320.039,279.612 317.702,279.302 315.993,278.675C314.283,278.048 311.491,275.39 310.771,274.674L309.382,275.715C307.153,277.368 304.923,279.007 302.779,280.683C302.024,281.273 301.297,281.886 300.571,282.491C301.112,282.196 301.568,281.952 301.646,281.923C303.897,281.008 308.77,280.616 310.493,282.794C310.769,283.164 310.966,283.59 311.071,284.045C311.177,284.499 311.19,284.971 311.108,285.431C311.026,285.89 310.851,286.327 310.596,286.712C310.34,287.097 310.009,287.422 309.624,287.666C308.029,288.758 305.685,288.448 303.983,287.828C302.28,287.208 299.752,284.794 298.89,283.953C298.178,284.595 297.465,285.237 296.753,285.902C296.297,286.359 295.834,286.773 295.407,287.26C294.979,287.747 294.545,288.205 294.124,288.677C293.334,289.6 292.522,290.552 291.774,291.482C291.254,292.125 290.762,292.737 290.271,293.365C291.019,292.767 292.5,291.63 292.636,291.549C294.73,290.294 299.495,289.135 301.504,291.025C301.83,291.346 302.088,291.736 302.259,292.168C302.431,292.6 302.512,293.064 302.499,293.531C302.485,293.997 302.377,294.456 302.181,294.876C301.985,295.297 301.706,295.669 301.362,295.97C299.937,297.299 297.586,297.366 295.805,297.019C293.854,296.627 290.37,294.103 289.936,293.785C289.124,294.819 288.348,295.838 287.621,296.805C285.683,299.403 284.059,301.713 282.813,303.581L281.21,302.71C282.535,300.82 284.266,298.443 286.353,295.771C287.172,294.716 288.07,293.608 289.003,292.479C288.115,291.401 287.29,290.27 286.531,289.091C284.601,289.829 280.633,289.689 280.12,289.674C279.999,291.003 279.885,292.287 279.8,293.512C279.572,296.694 279.458,299.484 279.401,301.721L277.663,300.769C277.77,298.672 277.941,296.177 278.197,293.387C278.325,292.036 278.482,290.604 278.653,289.128C278.154,288.98 274.066,287.74 272.548,286.396C271.174,285.178 269.749,283.23 269.863,281.229C269.874,280.762 269.98,280.303 270.173,279.882C270.367,279.46 270.644,279.086 270.987,278.783C271.33,278.48 271.731,278.255 272.163,278.123C272.595,277.991 273.049,277.956 273.496,278.018C276.174,278.468 278.282,283.038 278.646,285.518C278.646,285.666 278.731,287.282 278.753,288.301C278.831,287.703 278.895,287.12 278.981,286.5C279.137,285.274 279.33,284.056 279.536,282.75C279.65,282.122 279.771,281.487 279.892,280.845C280.013,280.203 280.191,279.546 280.341,278.889C280.719,277.368 281.167,275.855 281.652,274.334C280.619,274.194 276.958,273.596 275.412,272.629C273.866,271.662 272.178,269.935 272.007,267.964C271.95,267.501 271.988,267.03 272.117,266.583C272.247,266.136 272.466,265.722 272.761,265.369C273.055,265.015 273.418,264.729 273.825,264.53C274.233,264.332 274.676,264.224 275.127,264.214C277.841,264.214 280.598,268.429 281.317,270.858C281.367,271.013 281.694,272.792 281.858,273.773C282.157,272.858 282.457,271.95 282.784,271.042C283.746,268.414 284.793,265.786 285.826,263.158C286.146,262.354 286.453,261.549 286.759,260.745C286.396,260.693 282.022,260.11 280.291,259.003C278.76,258.013 277.064,256.308 276.886,254.337C276.829,253.874 276.867,253.404 276.997,252.956C277.127,252.509 277.346,252.095 277.64,251.742C277.934,251.388 278.297,251.103 278.705,250.904C279.112,250.705 279.556,250.597 280.006,250.587C282.72,250.587 285.477,254.802 286.203,257.194C286.253,257.379 286.731,259.94 286.816,260.597C287.528,258.825 288.162,257.046 288.754,255.275C289.555,252.88 290.207,250.434 290.705,247.952C290.534,247.952 285.976,247.339 284.202,246.203C282.663,245.213 280.968,243.508 280.79,241.537C280.734,241.074 280.773,240.603 280.903,240.156C281.034,239.709 281.254,239.295 281.549,238.942C281.843,238.588 282.206,238.303 282.614,238.104C283.022,237.905 283.466,237.797 283.917,237.787C286.631,237.787 289.38,242.002 290.107,244.394C290.164,244.586 290.67,247.347 290.727,247.849C290.727,247.701 290.805,247.561 290.826,247.413C291.261,244.909 291.478,242.369 291.475,239.825C291.475,238.422 291.432,237.079 291.346,235.772C290.484,235.772 286.552,235.624 284.85,234.783C283.148,233.941 281.353,232.472 280.968,230.531C280.862,230.077 280.85,229.605 280.932,229.145C281.014,228.686 281.188,228.25 281.443,227.865C281.698,227.48 282.029,227.155 282.414,226.911C282.798,226.667 283.228,226.509 283.675,226.449C286.374,226.168 289.558,230.014 290.527,232.317C290.584,232.443 290.983,233.794 291.24,234.746C291.19,234.163 291.154,233.55 291.097,232.989C290.89,230.871 290.577,228.951 290.278,227.246C290.107,226.279 289.929,225.415 289.758,224.603C288.925,224.124 285.584,222.167 284.465,220.632C283.347,219.097 282.385,216.941 282.905,215.007C283.014,214.554 283.213,214.13 283.491,213.762C283.768,213.394 284.116,213.09 284.514,212.871C284.912,212.652 285.349,212.522 285.799,212.489C286.248,212.456 286.699,212.522 287.122,212.682C289.644,213.715 290.755,218.654 290.598,221.156C290.598,221.378 289.993,224.736 289.95,224.707L289.9,224.707C290.078,225.482 290.271,226.316 290.456,227.239C290.784,228.937 291.168,230.856 291.396,232.974C291.692,235.253 291.858,237.548 291.895,239.847C291.952,242.423 291.788,245 291.403,247.546L291.403,247.635C291.76,246.896 292.828,244.874 292.928,244.734C294.352,242.681 298.178,239.566 300.763,240.4C301.19,240.551 301.581,240.794 301.91,241.112C302.24,241.43 302.502,241.816 302.678,242.246C302.854,242.676 302.941,243.139 302.932,243.606C302.924,244.073 302.821,244.532 302.63,244.955C301.882,246.778 299.78,247.863 298.014,248.321C296.033,248.83 291.681,247.996 291.332,247.93C290.88,250.509 290.262,253.054 289.48,255.548C289.031,257.024 288.54,258.456 288.055,259.903C288.383,259.276 288.682,258.722 288.732,258.648C290.157,256.596 293.989,253.481 296.568,254.315C296.994,254.466 297.385,254.708 297.715,255.026C298.045,255.344 298.307,255.73 298.484,256.16C298.66,256.589 298.748,257.053 298.74,257.519C298.733,257.986 298.631,258.446 298.441,258.87C297.686,260.7 295.592,261.778 293.818,262.236C292.044,262.693 288.312,262.066 287.329,261.881L286.731,263.542C285.748,266.2 284.757,268.842 283.881,271.463C283.568,272.386 283.29,273.308 283.012,274.231C283.304,273.678 283.554,273.212 283.596,273.146C285.021,271.094 288.853,267.979 291.432,268.813C291.858,268.965 292.248,269.208 292.577,269.526C292.906,269.844 293.167,270.23 293.343,270.66C293.519,271.089 293.606,271.552 293.598,272.019C293.591,272.485 293.488,272.945 293.298,273.367C292.543,275.191 290.449,276.276 288.675,276.734C286.902,277.191 283.532,276.615 282.364,276.409C282.108,277.361 281.844,278.313 281.652,279.251C281.524,279.893 281.353,280.506 281.26,281.155C281.167,281.805 281.046,282.44 280.939,283.067C280.776,284.292 280.605,285.555 280.476,286.758C280.377,287.592 280.298,288.389 280.22,289.187C280.526,288.264 281.16,286.47 281.224,286.322C282.223,284.365 283.69,282.705 285.484,281.502C285.584,281.279 285.708,281.069 285.854,280.875C286.112,280.492 286.445,280.171 286.831,279.93C287.217,279.69 287.647,279.537 288.094,279.48C288.541,279.424 288.994,279.466 289.425,279.603C289.855,279.74 290.252,279.97 290.591,280.277C292.586,282.181 291.916,287.201 290.898,289.482C290.833,289.615 290.029,290.995 289.473,291.859C289.858,291.401 290.228,290.951 290.627,290.486C291.41,289.556 292.215,288.648 293.084,287.673L294.395,286.286C294.83,285.821 295.342,285.378 295.82,284.913C296.938,283.864 298.121,282.853 299.339,281.871C298.555,281.133 295.777,278.586 295.065,276.874C294.352,275.161 293.797,272.784 294.701,271.035C294.9,270.615 295.182,270.244 295.529,269.945C295.876,269.646 296.279,269.426 296.713,269.3C297.147,269.173 297.602,269.142 298.048,269.21C298.494,269.277 298.922,269.441 299.303,269.691C301.554,271.264 301.618,276.335 300.948,278.749C300.906,278.896 300.236,280.572 299.851,281.48C300.564,280.897 301.312,280.306 302.074,279.738C304.275,278.092 306.547,276.497 308.812,274.903L310.871,273.427C310.593,273.176 307.26,270.193 306.405,268.259C305.65,266.554 305.144,264.17 306.049,262.42C306.247,262.001 306.529,261.629 306.876,261.331C307.223,261.032 307.627,260.812 308.061,260.686C308.495,260.56 308.951,260.53 309.397,260.599C309.843,260.667 310.27,260.833 310.65,261.084C312.894,262.649 312.965,267.728 312.296,270.134C312.246,270.311 311.277,272.725 310.999,273.323C312.516,272.231 314.012,271.109 315.444,269.987C317.39,268.45 319.236,266.783 320.972,264.997C320.844,264.878 317.353,261.778 316.477,259.829C315.722,258.132 315.216,255.74 316.121,253.99C316.32,253.572 316.601,253.201 316.948,252.903C317.294,252.605 317.697,252.386 318.13,252.26C318.564,252.134 319.018,252.104 319.463,252.172C319.909,252.24 320.335,252.404 320.715,252.654C322.966,254.227 323.037,259.298 322.361,261.704C322.311,261.896 321.271,264.487 321.05,264.937L321.363,264.635C323.055,262.793 324.585,260.8 325.937,258.678C326.699,257.511 327.361,256.36 327.988,255.223C327.276,254.714 324.07,252.352 323.102,250.676C322.133,249 321.413,246.756 322.126,244.918C322.279,244.479 322.52,244.078 322.832,243.741C323.145,243.404 323.523,243.14 323.941,242.964C324.359,242.789 324.807,242.706 325.258,242.722C325.709,242.739 326.151,242.853 326.556,243.058C328.957,244.365 329.562,249.399 329.149,251.872C329.149,252.005 328.75,253.348 328.437,254.315C328.707,253.798 329,253.267 329.256,252.765C330.211,250.883 330.966,249.074 331.628,247.517C331.998,246.609 332.34,245.782 332.604,245.007C332.155,244.136 330.417,240.578 330.296,238.673C330.175,236.769 330.545,234.384 331.991,233.093C332.323,232.776 332.715,232.535 333.142,232.386C333.569,232.236 334.022,232.182 334.47,232.226C334.919,232.27 335.354,232.411 335.747,232.64C336.139,232.87 336.481,233.182 336.75,233.558C338.302,235.861 336.6,240.615 335.14,242.615C335.012,242.792 332.725,245.25 332.704,245.206L332.704,245.154C332.447,245.893 332.155,246.712 331.82,247.583C331.193,249.185 330.467,250.993 329.548,252.905C328.582,254.977 327.5,256.988 326.307,258.929C324.987,261.111 323.478,263.164 321.798,265.063L321.734,265.129C322.446,264.716 324.391,263.653 324.583,263.579C326.834,262.664 331.706,262.273 333.43,264.45C333.705,264.82 333.902,265.245 334.008,265.699C334.114,266.153 334.126,266.625 334.044,267.084C333.962,267.543 333.787,267.979 333.532,268.363C333.276,268.747 332.946,269.072 332.561,269.315C330.966,270.43 328.622,270.105 326.92,269.477Z" fill="#333333"/>
<path d="M291.703,235.336C291.653,235.336 292.415,232.015 292.479,231.808C293.298,229.446 296.233,225.386 298.94,225.482C299.389,225.511 299.828,225.638 300.227,225.855C300.626,226.072 300.977,226.373 301.256,226.739C301.535,227.105 301.737,227.528 301.849,227.98C301.96,228.433 301.979,228.904 301.903,229.364C301.646,231.335 299.88,232.959 298.306,233.875C296.454,234.952 291.703,235.336 291.703,235.336Z" fill="#333333"/>
</g>
<path d="M64.906,211.62L166.032,152.636L269.638,211.62L269.638,297.129L66.151,297.129L64.906,211.62Z" fill="#333333" stroke="#333333" stroke-width="1" stroke-miterlimit="3.999327" stroke-linecap="round" stroke-linejoin="round"/>
<path d="M242.967,168.546L91.589,168.546L91.589,308.061L242.967,308.061L242.967,168.546Z" fill="#FFFFFF" stroke="#333333" stroke-width="1" stroke-miterlimit="10"/>
<line x1="109.055" y1="191.074" x2="143.017" y2="191.074" stroke="#6A7EFC" stroke-width="2" stroke-miterlimit="10"/>
<line x1="108.956" y1="204.192" x2="223.732" y2="204.192" stroke="#333333" stroke-width="1" stroke-miterlimit="10"/>
<line x1="108.956" y1="216.408" x2="223.732" y2="216.408" stroke="#6A7EFC" stroke-width="1" stroke-miterlimit="10"/>
<line x1="108.956" y1="228.624" x2="223.732" y2="228.624" stroke="#333333" stroke-width="1" stroke-miterlimit="10"/>
<line x1="108.956" y1="240.839" x2="223.732" y2="240.839" stroke="#333333" stroke-width="1" stroke-miterlimit="10"/>
<line x1="108.956" y1="253.055" x2="223.732" y2="253.055" stroke="#333333" stroke-width="1" stroke-miterlimit="10"/>
<path d="M269.638,329.278L64.906,329.278L64.906,211.62L167.278,283.629L269.638,211.62L269.638,329.278Z" fill="#6A7EFC" stroke="#333333" stroke-width="1" stroke-miterlimit="10"/>
<path d="M65.565,330.03L140.003,264.698L138.684,263.195L64.246,328.527L65.565,330.03Z" fill="#333333"/>
<path d="M269.976,328.53L196.092,263.092L194.766,264.589L268.65,330.027L269.976,328.53Z" fill="#333333"/>
</svg>
