<svg width="16" height="22" viewBox="0 0 16 22" fill="none" xmlns="http://www.w3.org/2000/svg" xmlns:xlink="http://www.w3.org/1999/xlink">
<path d="M0,22L16,22L16,18.071C15.998,16.613 15.408,15.215 14.358,14.184C13.308,13.153 11.885,12.573 10.4,12.571L5.6,12.571C4.115,12.573 2.692,13.153 1.642,14.184C0.592,15.215 0.002,16.613 0,18.071L0,22Z" fill="#403A4B" fill-opacity="0.6"/>
<path d="M2.4,5.5C2.4,6.588 2.728,7.651 3.343,8.556C3.959,9.46 4.833,10.165 5.857,10.581C6.88,10.998 8.006,11.107 9.092,10.894C10.178,10.682 11.176,10.158 11.959,9.389C12.743,8.62 13.276,7.64 13.492,6.573C13.708,5.506 13.597,4.4 13.173,3.395C12.75,2.39 12.032,1.531 11.111,0.927C10.19,0.323 9.107,0 8,0C6.514,0 5.09,0.579 4.04,1.611C2.99,2.642 2.4,4.041 2.4,5.5Z" fill="#403A4B" fill-opacity="0.6"/>
</svg>
