<svg width="46" height="42" viewBox="0 0 46 42" fill="none" xmlns="http://www.w3.org/2000/svg" xmlns:xlink="http://www.w3.org/1999/xlink">
<path d="M27.563,23.083C27.563,25.717 25.446,27.833 22.856,27.833L22.856,30.833C27.123,30.833 30.563,27.354 30.563,23.083L27.563,23.083ZM22.856,27.833C20.267,27.833 18.149,25.717 18.149,23.083L15.149,23.083C15.149,27.354 18.59,30.833 22.856,30.833L22.856,27.833ZM18.149,23.083C18.149,20.45 20.267,18.333 22.856,18.333L22.856,15.333C18.59,15.333 15.149,18.813 15.149,23.083L18.149,23.083ZM22.856,18.333C25.446,18.333 27.563,20.45 27.563,23.083L30.563,23.083C30.563,18.813 27.123,15.333 22.856,15.333L22.856,18.333Z" fill="#292D32"/>
<path d="M39.46,38.219L38.633,36.967L38.633,36.967L39.46,38.219ZM41.996,35.711L43.238,36.551L43.239,36.551L41.996,35.711ZM41.996,11.973L43.239,11.133L43.238,11.132L41.996,11.973ZM39.46,9.465L38.632,10.716L38.634,10.717L39.46,9.465ZM33.247,8.002L33.312,6.504L33.279,6.502L33.247,6.502L33.247,8.002ZM30.443,5.658L31.914,5.362L31.911,5.349L30.443,5.658ZM26.237,2.25L26.237,3.75L26.247,3.75L26.237,2.25ZM15.269,5.658L13.799,5.361L13.799,5.362L15.269,5.658ZM12.466,8.002L12.466,6.502L12.433,6.502L12.4,6.504L12.466,8.002ZM6.253,9.465L5.427,8.212L5.426,8.213L6.253,9.465ZM3.718,11.973L4.96,12.814L4.961,12.813L3.718,11.973ZM3.716,35.711L2.473,36.55L2.474,36.551L3.716,35.711ZM6.253,38.219L5.426,39.47L5.426,39.471L6.253,38.219ZM18.259,41.25L27.453,41.25L27.453,38.25L18.259,38.25L18.259,41.25ZM27.453,41.25C30.651,41.25 33.161,41.252 35.158,41.051C37.179,40.848 38.84,40.425 40.286,39.471L38.633,36.967C37.76,37.543 36.646,37.887 34.858,38.066C33.046,38.248 30.713,38.25 27.453,38.25L27.453,41.25ZM40.286,39.471C41.451,38.702 42.454,37.709 43.238,36.551L40.754,34.87C40.19,35.703 39.469,36.415 38.633,36.967L40.286,39.471ZM43.239,36.551C44.209,35.116 44.638,33.467 44.844,31.464C45.048,29.487 45.046,27.002 45.046,23.842L42.046,23.842C42.046,27.065 42.044,29.369 41.86,31.157C41.679,32.919 41.333,34.013 40.754,34.87L43.239,36.551ZM45.046,23.842C45.046,20.681 45.048,18.196 44.844,16.219C44.638,14.216 44.209,12.567 43.239,11.133L40.754,12.813C41.333,13.67 41.679,14.764 41.86,16.526C42.044,18.314 42.046,20.617 42.046,23.842L45.046,23.842ZM43.238,11.132C42.455,9.974 41.451,8.982 40.286,8.213L38.634,10.717C39.47,11.268 40.19,11.981 40.754,12.814L43.238,11.132ZM40.287,8.214C38.437,6.99 36.216,6.631 33.312,6.504L33.181,9.501C35.992,9.624 37.503,9.969 38.632,10.716L40.287,8.214ZM33.247,6.502C32.639,6.502 32.048,6.027 31.914,5.362L28.973,5.955C29.372,7.936 31.127,9.502 33.247,9.502L33.247,6.502ZM31.911,5.349C31.636,4.045 30.922,2.873 29.887,2.035L27.998,4.365C28.496,4.769 28.842,5.334 28.975,5.967L31.911,5.349ZM29.887,2.035C28.852,1.196 27.559,0.741 26.227,0.75L26.247,3.75C26.882,3.746 27.501,3.962 27.998,4.365L29.887,2.035ZM26.237,0.75L19.476,0.75L19.476,3.75L26.237,3.75L26.237,0.75ZM19.476,0.75C16.729,0.75 14.345,2.669 13.799,5.361L16.74,5.956C16.997,4.686 18.134,3.75 19.476,3.75L19.476,0.75ZM13.799,5.362C13.665,6.027 13.073,6.502 12.466,6.502L12.466,9.502C14.585,9.502 16.34,7.936 16.74,5.955L13.799,5.362ZM12.4,6.504C9.497,6.631 7.278,6.992 5.427,8.212L7.078,10.717C8.211,9.97 9.725,9.624 12.532,9.501L12.4,6.504ZM5.426,8.213C4.261,8.982 3.259,9.975 2.476,11.133L4.961,12.813C5.524,11.98 6.244,11.268 7.08,10.716L5.426,8.213ZM2.476,11.132C1.505,12.567 1.075,14.215 0.869,16.218C0.665,18.196 0.667,20.681 0.667,23.842L3.667,23.842C3.667,20.617 3.669,18.314 3.853,16.526C4.034,14.764 4.38,13.671 4.96,12.814L2.476,11.132ZM0.667,23.842C0.667,27.002 0.665,29.486 0.868,31.463C1.074,33.466 1.504,35.115 2.473,36.55L4.959,34.871C4.379,34.012 4.034,32.918 3.852,31.156C3.669,29.368 3.667,27.065 3.667,23.842L0.667,23.842ZM2.474,36.551C3.254,37.706 4.257,38.697 5.426,39.47L7.08,36.967C6.238,36.411 5.519,35.699 4.959,34.87L2.474,36.551ZM5.426,39.471C6.873,40.425 8.533,40.848 10.554,41.051C12.551,41.252 15.061,41.25 18.259,41.25L18.259,38.25C15,38.25 12.666,38.248 10.854,38.066C9.066,37.887 7.952,37.543 7.079,36.967L5.426,39.471Z" fill="#292D32"/>
<line x1="35.27" y1="15.333" x2="37.339" y2="15.333" stroke="#292D32" stroke-width="1.5" stroke-miterlimit="3.999327" stroke-linecap="round"/>
</svg>
