<svg width="38" height="38" viewBox="0 0 38 38" fill="none" xmlns="http://www.w3.org/2000/svg" xmlns:xlink="http://www.w3.org/1999/xlink">
<path d="M4.75,2.485C4.12,2.485 3.516,2.747 3.071,3.213C2.625,3.679 2.375,4.311 2.375,4.97L2.375,24.848C2.375,25.507 2.625,26.139 3.071,26.605C3.516,27.071 4.12,27.333 4.75,27.333L27.517,27.333C28.776,27.333 29.984,27.857 30.875,28.789L35.625,33.759L35.625,4.97C35.625,4.311 35.375,3.679 34.929,3.213C34.484,2.747 33.88,2.485 33.25,2.485L4.75,2.485ZM33.25,0C34.51,0 35.718,0.524 36.609,1.456C37.5,2.388 38,3.652 38,4.97L38,36.758C38,37.004 37.93,37.244 37.8,37.448C37.669,37.653 37.483,37.812 37.266,37.906C37.049,38 36.81,38.024 36.58,37.976C36.349,37.928 36.138,37.809 35.972,37.635L29.196,30.546C28.751,30.08 28.147,29.818 27.517,29.818L4.75,29.818C3.49,29.818 2.282,29.294 1.391,28.362C0.5,27.43 0,26.166 0,24.848L0,4.97C0,3.652 0.5,2.388 1.391,1.456C2.282,0.524 3.49,0 4.75,0L33.25,0Z" fill="#292D32"/>
<path d="M7.125,8.697C7.125,8.367 7.25,8.051 7.473,7.818C7.696,7.585 7.998,7.455 8.313,7.455L29.687,7.455C30.002,7.455 30.304,7.585 30.527,7.818C30.75,8.051 30.875,8.367 30.875,8.697C30.875,9.027 30.75,9.343 30.527,9.576C30.304,9.809 30.002,9.939 29.687,9.939L8.313,9.939C7.998,9.939 7.696,9.809 7.473,9.576C7.25,9.343 7.125,9.027 7.125,8.697ZM7.125,14.909C7.125,14.58 7.25,14.264 7.473,14.031C7.696,13.798 7.998,13.667 8.313,13.667L29.687,13.667C30.002,13.667 30.304,13.798 30.527,14.031C30.75,14.264 30.875,14.58 30.875,14.909C30.875,15.239 30.75,15.555 30.527,15.788C30.304,16.021 30.002,16.151 29.687,16.151L8.313,16.151C7.998,16.151 7.696,16.021 7.473,15.788C7.25,15.555 7.125,15.239 7.125,14.909ZM7.125,21.121C7.125,20.792 7.25,20.476 7.473,20.243C7.696,20.01 7.998,19.879 8.313,19.879L20.188,19.879C20.502,19.879 20.804,20.01 21.027,20.243C21.25,20.476 21.375,20.792 21.375,21.121C21.375,21.451 21.25,21.767 21.027,22C20.804,22.233 20.502,22.363 20.188,22.363L8.313,22.363C7.998,22.363 7.696,22.233 7.473,22C7.25,21.767 7.125,21.451 7.125,21.121Z" fill="#292D32"/>
</svg>
