<svg width="50" height="50" viewBox="0 0 50 50" fill="none" xmlns="http://www.w3.org/2000/svg" xmlns:xlink="http://www.w3.org/1999/xlink">
<path d="M37.064,47.395L12.939,47.395C7.23,47.395 2.605,42.75 2.605,37.041L2.605,21.604C2.605,18.77 4.355,15.208 6.605,13.458L17.835,4.708C21.21,2.083 26.605,1.958 30.105,4.416L42.98,13.437C45.46,15.166 47.397,18.875 47.397,21.895L47.397,37.062C47.397,42.75 42.772,47.395 37.064,47.395ZM19.751,7.166L8.522,15.916C7.043,17.083 5.73,19.729 5.73,21.604L5.73,37.041C5.73,41.02 8.96,44.27 12.939,44.27L37.064,44.27C41.043,44.27 44.272,41.041 44.272,37.062L44.272,21.895C44.272,19.895 42.835,17.125 41.189,16L28.314,6.979C25.939,5.312 22.022,5.395 19.751,7.166Z" fill="#292D32"/>
<path d="M25,39.062C24.146,39.062 23.437,38.354 23.437,37.5L23.437,31.25C23.437,30.396 24.146,29.687 25,29.687C25.854,29.687 26.562,30.396 26.562,31.25L26.562,37.5C26.562,38.354 25.854,39.062 25,39.062Z" fill="#292D32"/>
</svg>
