<svg width="42" height="42" viewBox="0 0 42 42" fill="none" xmlns="http://www.w3.org/2000/svg" xmlns:xlink="http://www.w3.org/1999/xlink">
<path d="M34.727,20.018C34.727,19.46 34.274,19.007 33.715,19.007C33.157,19.007 32.704,19.46 32.704,20.018L34.727,20.018ZM20.229,7.544C20.788,7.544 21.241,7.091 21.241,6.532C21.241,5.974 20.788,5.521 20.229,5.521L20.229,7.544ZM20.229,32.493C17.022,32.493 14.718,32.491 12.965,32.255C11.241,32.023 10.201,31.582 9.433,30.814L8.003,32.245C9.21,33.451 10.747,33.998 12.695,34.26C14.615,34.518 17.079,34.516 20.229,34.516L20.229,32.493ZM5.732,20.018C5.732,23.168 5.729,25.633 5.987,27.552C6.249,29.5 6.796,31.038 8.003,32.245L9.433,30.814C8.665,30.046 8.224,29.007 7.992,27.283C7.757,25.529 7.754,23.226 7.754,20.018L5.732,20.018ZM32.704,20.018C32.704,23.226 32.702,25.529 32.466,27.283C32.234,29.007 31.793,30.046 31.025,30.814L32.455,32.245C33.662,31.038 34.209,29.5 34.471,27.552C34.729,25.633 34.727,23.168 34.727,20.018L32.704,20.018ZM20.229,34.516C23.379,34.516 25.844,34.518 27.763,34.26C29.711,33.998 31.249,33.451 32.455,32.245L31.025,30.814C30.257,31.582 29.217,32.023 27.493,32.255C25.74,32.491 23.436,32.493 20.229,32.493L20.229,34.516ZM20.229,5.521C17.079,5.521 14.615,5.519 12.695,5.777C10.747,6.039 9.21,6.585 8.003,7.792L9.433,9.222C10.201,8.454 11.241,8.013 12.965,7.782C14.718,7.546 17.022,7.544 20.229,7.544L20.229,5.521ZM7.754,20.018C7.754,16.811 7.757,14.507 7.992,12.754C8.224,11.03 8.665,9.991 9.433,9.222L8.003,7.792C6.796,8.999 6.249,10.536 5.987,12.485C5.729,14.404 5.732,16.868 5.732,20.018L7.754,20.018Z" fill="#02040F" fill-opacity="0.6"/>
<path d="M29.012,11.221L28.349,11.986L28.349,11.986L29.012,11.221ZM25.833,8.466L26.495,7.702L26.495,7.702L25.833,8.466ZM29.012,19.375L28.349,18.61L28.349,18.61L29.012,19.375ZM25.833,22.13L26.495,22.894L26.495,22.894L25.833,22.13ZM23.601,11.541L23.601,12.553C24.159,12.553 24.612,12.1 24.612,11.541L23.601,11.541ZM13.486,24.064L12.475,24.064C12.475,24.527 12.789,24.931 13.239,25.045C13.688,25.158 14.157,24.952 14.377,24.544L13.486,24.064ZM23.601,19.055L24.612,19.055C24.612,18.496 24.159,18.043 23.601,18.043L23.601,19.055ZM23.995,23.201L24.415,22.281L24.415,22.281L23.995,23.201ZM23.995,7.395L23.575,6.475L23.575,6.475L23.995,7.395ZM29.674,10.457L26.495,7.702L25.17,9.231L28.349,11.986L29.674,10.457ZM28.349,18.61L25.17,21.365L26.495,22.894L29.674,20.139L28.349,18.61ZM24.612,11.541L24.612,9.485L22.589,9.485L22.589,11.541L24.612,11.541ZM23.601,10.53C21.353,10.53 18.554,11.211 16.308,13.306C14.043,15.42 12.475,18.846 12.475,24.064L14.498,24.064C14.498,19.264 15.926,16.429 17.688,14.785C19.469,13.124 21.727,12.553 23.601,12.553L23.601,10.53ZM24.612,21.111L24.612,19.055L22.589,19.055L22.589,21.111L24.612,21.111ZM14.377,24.544C15.089,23.221 16.411,22.098 18.092,21.299C19.767,20.504 21.725,20.066 23.601,20.066L23.601,18.043C21.43,18.043 19.174,18.545 17.224,19.472C15.281,20.395 13.569,21.776 12.596,23.584L14.377,24.544ZM25.17,21.365C24.663,21.805 24.368,22.057 24.154,22.194C23.923,22.343 24.112,22.142 24.415,22.281L23.575,24.121C24.272,24.439 24.899,24.12 25.247,23.897C25.613,23.662 26.04,23.289 26.495,22.894L25.17,21.365ZM22.589,21.111C22.589,21.713 22.587,22.28 22.649,22.71C22.708,23.12 22.878,23.803 23.575,24.121L24.415,22.281C24.718,22.419 24.69,22.693 24.651,22.421C24.615,22.17 24.612,21.782 24.612,21.111L22.589,21.111ZM26.495,7.702C26.04,7.307 25.613,6.934 25.247,6.699C24.899,6.476 24.272,6.157 23.575,6.475L24.415,8.315C24.112,8.454 23.923,8.253 24.154,8.402C24.368,8.539 24.663,8.791 25.17,9.231L26.495,7.702ZM24.612,9.485C24.612,8.814 24.615,8.426 24.651,8.175C24.69,7.903 24.718,8.177 24.415,8.315L23.575,6.475C22.878,6.793 22.708,7.476 22.649,7.886C22.587,8.316 22.589,8.883 22.589,9.485L24.612,9.485ZM28.349,11.986C29.466,12.954 30.222,13.612 30.711,14.173C31.181,14.714 31.283,15.029 31.283,15.298L33.306,15.298C33.306,14.335 32.86,13.561 32.236,12.845C31.631,12.15 30.745,11.385 29.674,10.457L28.349,11.986ZM29.674,20.139C30.745,19.211 31.631,18.446 32.236,17.751C32.86,17.035 33.306,16.261 33.306,15.298L31.283,15.298C31.283,15.567 31.181,15.882 30.711,16.423C30.222,16.984 29.466,17.642 28.349,18.61L29.674,20.139Z" fill="#02040F" fill-opacity="0.6"/>
</svg>
