<svg width="24" height="24" viewBox="0 0 24 24" fill="none" xmlns="http://www.w3.org/2000/svg">
<path d="M14.5 23C14.0833 23 13.7293 22.8543 13.438 22.563C13.1466 22.2717 13.0006 21.9173 13 21.5V14.5C13 14.0833 13.146 13.7293 13.438 13.438C13.73 13.1467 14.084 13.0007 14.5 13H21.5C21.9166 13 22.271 13.146 22.563 13.438C22.855 13.73 23.0006 14.084 23 14.5V21.5C23 21.9167 22.8543 22.271 22.563 22.563C22.2716 22.855 21.9173 23.0007 21.5 23H14.5ZM18 18C18.4166 18 18.771 17.8543 19.063 17.563C19.355 17.2717 19.5006 16.9173 19.5 16.5C19.4993 16.0827 19.3536 15.7287 19.063 15.438C18.7723 15.1473 18.418 15.0013 18 15C17.582 14.9987 17.228 15.1447 16.938 15.438C16.648 15.7313 16.502 16.0853 16.5 16.5C16.498 16.9147 16.644 17.269 16.938 17.563C17.232 17.857 17.586 18.0027 18 18ZM11 17.425V22H10.575C10.125 22 9.77931 21.85 9.53798 21.55C9.29665 21.25 9.14231 20.8833 9.07498 20.45L8.84998 18.8C8.63331 18.7167 8.42931 18.6167 8.23798 18.5C8.04665 18.3833 7.85898 18.2583 7.67498 18.125L6.12498 18.775C5.70831 18.9583 5.29165 18.975 4.87498 18.825C4.45831 18.675 4.13331 18.4083 3.89998 18.025L2.72498 15.975C2.49165 15.5917 2.42498 15.1833 2.52498 14.75C2.62498 14.3167 2.84998 13.9583 3.19998 13.675L4.52498 12.675C4.50831 12.5583 4.49998 12.4457 4.49998 12.337V11.662C4.49998 11.554 4.50831 11.4417 4.52498 11.325L3.19998 10.325C2.84998 10.0417 2.62498 9.68333 2.52498 9.25C2.42498 8.81667 2.49165 8.40833 2.72498 8.025L3.89998 5.975C4.13331 5.59167 4.45831 5.325 4.87498 5.175C5.29165 5.025 5.70831 5.04167 6.12498 5.225L7.67498 5.875C7.85831 5.74167 8.04998 5.61667 8.24998 5.5C8.44998 5.38333 8.64998 5.28333 8.84998 5.2L9.07498 3.55C9.14165 3.11667 9.33765 2.75 9.66298 2.45C9.98831 2.15 10.3756 2 10.825 2H13.175C13.625 2 14.0126 2.15 14.338 2.45C14.6633 2.75 14.859 3.11667 14.925 3.55L15.15 5.2C15.3666 5.28333 15.571 5.38333 15.763 5.5C15.955 5.61667 16.1423 5.74167 16.325 5.875L17.875 5.225C18.2916 5.04167 18.7083 5.025 19.125 5.175C19.5416 5.325 19.8666 5.59167 20.1 5.975L21.275 8.025C21.5083 8.40833 21.575 8.821 21.475 9.263C21.375 9.705 21.15 10.059 20.8 10.325L20.2 10.775C19.9666 10.9417 19.721 11.0083 19.463 10.975C19.205 10.9417 18.984 10.8167 18.8 10.6C18.616 10.3833 18.541 10.1417 18.575 9.875C18.609 9.60833 18.734 9.38333 18.95 9.2L19.425 8.85L18.45 7.15L15.975 8.2C15.6083 7.81667 15.204 7.496 14.762 7.238C14.32 6.98 13.841 6.784 13.325 6.65L13 4H11.025L10.675 6.65C10.1583 6.78333 9.67931 6.97933 9.23798 7.238C8.79665 7.49667 8.39231 7.809 8.02498 8.175L5.54998 7.15L4.57498 8.85L6.72498 10.45C6.64165 10.7 6.58331 10.95 6.54998 11.2C6.51665 11.45 6.49998 11.7167 6.49998 12C6.49998 12.2667 6.51665 12.525 6.54998 12.775C6.58331 13.025 6.64165 13.275 6.72498 13.525L4.57498 15.15L5.54998 16.85L8.02498 15.8C8.42498 16.2167 8.87931 16.5627 9.38798 16.838C9.89665 17.1133 10.434 17.309 11 17.425ZM12.05 8.5C11.0833 8.5 10.2583 8.83767 9.57498 9.513C8.89165 10.1883 8.54998 11.0173 8.54998 12C8.54998 12.35 8.59998 12.6917 8.69998 13.025C8.79998 13.3583 8.94998 13.675 9.14998 13.975C9.33331 14.225 9.57098 14.3833 9.86298 14.45C10.155 14.5167 10.4173 14.4583 10.65 14.275C10.8833 14.1083 11.021 13.8873 11.063 13.612C11.105 13.3367 11.034 13.0993 10.85 12.9C10.75 12.7667 10.675 12.629 10.625 12.487C10.575 12.345 10.55 12.1827 10.55 12C10.55 11.5833 10.696 11.2293 10.988 10.938C11.28 10.6467 11.634 10.5007 12.05 10.5C12.2166 10.5 12.3793 10.5293 12.538 10.588C12.6966 10.6467 12.8423 10.7257 12.975 10.825C13.175 10.975 13.4 11.0293 13.65 10.988C13.9 10.9467 14.1083 10.809 14.275 10.575C14.4416 10.341 14.496 10.0827 14.438 9.8C14.38 9.51733 14.234 9.284 14 9.1C13.7666 8.9 13.4833 8.75 13.15 8.65C12.8166 8.55 12.45 8.5 12.05 8.5ZM15 21.5H21C21.1333 21.5 21.25 21.45 21.35 21.35C21.45 21.25 21.5 21.1333 21.5 21C21.5 20.9 21.4833 20.8083 21.45 20.725C21.4166 20.6417 21.3666 20.5583 21.3 20.475C20.8833 20.025 20.396 19.6667 19.838 19.4C19.28 19.1333 18.6673 19 18 19C17.3326 19 16.72 19.1333 16.162 19.4C15.604 19.6667 15.1166 20.025 14.7 20.475C14.6666 20.5083 14.6 20.6833 14.5 21C14.5 21.1333 14.55 21.25 14.65 21.35C14.75 21.45 14.8666 21.5 15 21.5Z" fill="black"/>
</svg>
