<svg width="10" height="16" viewBox="0 0 10 16" fill="none" xmlns="http://www.w3.org/2000/svg" xmlns:xlink="http://www.w3.org/1999/xlink">
<path d="M1.038,14.948C0.848,14.948 0.658,14.884 0.508,14.747C0.218,14.481 0.218,14.041 0.508,13.775L7.028,7.798C7.508,7.358 7.508,6.643 7.028,6.203L0.508,0.227C0.218,-0.039 0.218,-0.479 0.508,-0.745C0.798,-1.011 1.278,-1.011 1.568,-0.745L8.088,5.232C8.598,5.699 8.888,6.332 8.888,7.001C8.888,7.67 8.608,8.303 8.088,8.77L1.568,14.747C1.418,14.875 1.228,14.948 1.038,14.948Z" fill="#6E6E6E" fill-opacity="0.81"/>
</svg>
