<svg width="32" height="34" viewBox="0 0 32 34" fill="none" xmlns="http://www.w3.org/2000/svg" xmlns:xlink="http://www.w3.org/1999/xlink">
<path d="M16,2.817C8.507,2.817 2.433,9.167 2.433,17C2.433,24.833 8.507,31.183 16,31.183C23.493,31.183 29.567,24.833 29.567,17C29.567,9.167 23.493,2.817 16,2.817ZM0.233,17C0.233,7.896 7.292,0.517 16,0.517C24.708,0.517 31.767,7.896 31.767,17C31.767,26.103 24.708,33.483 16,33.483C7.292,33.483 0.233,26.103 0.233,17ZM10.716,22.448C11.078,21.938 11.767,21.831 12.255,22.209C13.323,23.037 14.612,23.517 16,23.517C17.387,23.517 18.677,23.037 19.745,22.209C20.233,21.831 20.922,21.938 21.284,22.448C21.645,22.959 21.543,23.679 21.055,24.057C19.629,25.162 17.884,25.817 16,25.817C14.115,25.817 12.371,25.162 10.945,24.057C10.457,23.679 10.354,22.959 10.716,22.448Z" clip-rule="evenodd" fill-rule="evenodd" fill="#02040F"/>
<path d="M21.867,14.7C21.867,15.97 21.21,17 20.4,17C19.59,17 18.933,15.97 18.933,14.7C18.933,13.43 19.59,12.4 20.4,12.4C21.21,12.4 21.867,13.43 21.867,14.7Z" fill="#02040F"/>
<path d="M13.066,14.7C13.066,15.97 12.41,17 11.6,17C10.79,17 10.133,15.97 10.133,14.7C10.133,13.43 10.79,12.4 11.6,12.4C12.41,12.4 13.066,13.43 13.066,14.7Z" fill="#02040F"/>
</svg>
