<svg width="32" height="30" viewBox="0 0 32 30" fill="none" xmlns="http://www.w3.org/2000/svg" xmlns:xlink="http://www.w3.org/1999/xlink">
<path d="M12.009,2.661L21.932,7.328C24.948,8.747 27.322,9.863 28.933,10.921C30.524,11.965 31.766,13.203 31.766,15C31.766,16.797 30.523,18.035 28.933,19.08C27.322,20.137 24.948,21.253 21.932,22.672L12.009,27.34C10.166,28.207 8.731,28.881 7.611,29.319C6.516,29.748 5.536,30.029 4.665,29.93C2.553,29.69 0.735,28.175 0.295,26.038C0.109,25.131 0.37,24.118 0.744,23.065C1.132,21.974 1.748,20.575 2.534,18.791L2.555,18.743C3.169,17.349 3.405,16.799 3.525,16.251C3.707,15.425 3.707,14.575 3.525,13.75C3.405,13.201 3.169,12.651 2.555,11.257L2.534,11.209C1.748,9.425 1.132,8.026 0.744,6.935C0.37,5.882 0.109,4.869 0.295,3.963C0.735,1.825 2.553,0.31 4.665,0.07C5.536,-0.029 6.516,0.253 7.611,0.681C8.731,1.119 10.166,1.793 12.009,2.661ZM6.841,2.835C5.764,2.414 5.214,2.321 4.903,2.357C3.601,2.505 2.66,3.407 2.446,4.446C2.406,4.64 2.434,5.088 2.806,6.134C3.162,7.133 3.742,8.453 4.553,10.295C4.571,10.336 4.589,10.375 4.606,10.415C5.15,11.65 5.492,12.426 5.67,13.235C5.925,14.399 5.925,15.601 5.67,16.765C5.492,17.574 5.15,18.35 4.606,19.585C4.589,19.625 4.571,19.665 4.553,19.705C3.742,21.547 3.162,22.868 2.806,23.866C2.434,24.912 2.406,25.361 2.446,25.554C2.66,26.593 3.601,27.495 4.903,27.643C5.214,27.679 5.764,27.586 6.841,27.165C7.886,26.756 9.255,26.113 11.146,25.223L20.94,20.617C24.065,19.147 26.297,18.094 27.763,17.132C29.264,16.146 29.566,15.506 29.566,15C29.566,14.494 29.264,13.854 27.763,12.868C26.297,11.906 24.065,10.853 20.94,9.384L11.146,4.777C9.255,3.887 7.886,3.244 6.841,2.835Z" clip-rule="evenodd" fill-rule="evenodd" fill="#02040F"/>
</svg>
