<svg width="24" height="16" viewBox="0 0 24 16" fill="none" xmlns="http://www.w3.org/2000/svg" xmlns:xlink="http://www.w3.org/1999/xlink">
<path d="M23.931,7.676C23.896,7.597 23.049,5.718 21.166,3.835C18.657,1.326 15.488,0 12,0C8.512,0 5.343,1.326 2.834,3.835C0.951,5.718 0.104,7.597 0.069,7.676C0.023,7.778 0,7.889 0,8.001C0,8.113 0.023,8.223 0.069,8.326C0.104,8.405 0.951,10.283 2.834,12.166C5.343,14.674 8.512,16 12,16C15.488,16 18.657,14.674 21.166,12.166C23.049,10.283 23.896,8.405 23.931,8.326C23.977,8.223 24,8.113 24,8.001C24,7.889 23.976,7.778 23.931,7.676ZM12,4.401C12.712,4.401 13.408,4.612 14,5.007C14.592,5.403 15.053,5.965 15.326,6.623C15.598,7.281 15.67,8.005 15.531,8.703C15.392,9.401 15.049,10.043 14.546,10.546C14.042,11.05 13.401,11.393 12.702,11.532C12.004,11.671 11.28,11.599 10.622,11.327C9.965,11.054 9.402,10.593 9.007,10.001C8.611,9.409 8.4,8.713 8.4,8.001C8.401,7.046 8.781,6.131 9.456,5.456C10.13,4.781 11.046,4.402 12,4.401Z" fill="#403A4B" fill-opacity="0.6"/>
</svg>
