<svg width="14" height="30" viewBox="0 0 14 30" fill="none" xmlns="http://www.w3.org/2000/svg" xmlns:xlink="http://www.w3.org/1999/xlink">
<path d="M0.845,28.451C0.529,28.451 0.212,28.335 -0.038,28.085C-0.521,27.601 -0.521,26.801 -0.038,26.318L10.829,15.452C11.629,14.652 11.629,13.352 10.829,12.552L-0.038,1.685C-0.521,1.201 -0.521,0.401 -0.038,-0.082C0.445,-0.565 1.245,-0.565 1.729,-0.082L12.595,10.785C13.445,11.635 13.929,12.785 13.929,14.002C13.929,15.218 13.462,16.368 12.595,17.218L1.729,28.085C1.479,28.318 1.162,28.451 0.845,28.451Z" fill="#292D32"/>
</svg>
