<svg width="32" height="36" viewBox="0 0 32 36" fill="none" xmlns="http://www.w3.org/2000/svg" xmlns:xlink="http://www.w3.org/1999/xlink">
<path d="M16,0.052C7.184,0.052 0,7.691 0,17.065C0,26.439 7.184,34.078 16,34.078C24.816,34.078 32,26.439 32,17.065C32,7.691 24.816,0.052 16,0.052ZM22.96,23.138C22.736,23.547 22.336,23.768 21.92,23.768C21.712,23.768 21.504,23.717 21.312,23.581L16.352,20.433C15.12,19.651 14.208,17.932 14.208,16.418L14.208,9.443C14.208,8.745 14.752,8.167 15.408,8.167C16.064,8.167 16.608,8.745 16.608,9.443L16.608,16.418C16.608,17.031 17.088,17.932 17.584,18.239L22.544,21.386C23.12,21.743 23.312,22.526 22.96,23.138Z" fill="#3F3F3F"/>
</svg>
