<svg width="28" height="34" viewBox="0 0 28 34" fill="none" xmlns="http://www.w3.org/2000/svg" xmlns:xlink="http://www.w3.org/1999/xlink">
<path d="M8.325,3.341C12.42,-1.114 19.04,-1.114 23.134,3.341C27.254,7.823 27.254,15.113 23.134,19.596L12.076,31.627C9.168,34.791 4.471,34.791 1.563,31.627C-1.37,28.435 -1.37,23.238 1.563,20.046L12.462,8.188C14.184,6.315 16.957,6.315 18.679,8.188C20.426,10.089 20.426,13.194 18.679,15.095L7.7,27.04C7.284,27.493 6.623,27.476 6.225,27.003C5.826,26.53 5.841,25.779 6.257,25.326L17.236,13.381C18.124,12.414 18.124,10.869 17.236,9.902C16.321,8.907 14.82,8.907 13.905,9.902L3.006,21.76C0.931,24.018 0.931,27.656 3.006,29.914C5.107,32.199 8.532,32.199 10.632,29.914L21.691,17.882C24.952,14.334 24.952,8.603 21.691,5.054C18.403,1.478 13.056,1.478 9.768,5.054L0.858,14.749C0.442,15.202 -0.219,15.185 -0.617,14.712C-1.016,14.239 -1.001,13.488 -0.585,13.035L8.325,3.341Z" clip-rule="evenodd" fill-rule="evenodd" fill="#02040F"/>
</svg>
